<?xml version="1.0" standalone="no"?>
<!DOCTYPE svg PUBLIC "-//W3C//DTD SVG 20010904//EN"
 "http://www.w3.org/TR/2001/REC-SVG-20010904/DTD/svg10.dtd">
<svg version="1.0" xmlns="http://www.w3.org/2000/svg"
 width="512.000000pt" height="512.000000pt" viewBox="0 0 512.000000 512.000000"
 preserveAspectRatio="xMidYMid meet">

<g transform="translate(0.000000,512.000000) scale(0.100000,-0.100000)"
fill="#000000" stroke="none">
<path d="M3430 4370 c-273 -18 -539 -80 -777 -182 l-92 -39 -143 55 c-561 216
-1190 219 -1753 10 -210 -79 -233 -102 -242 -245 l-6 -79 -136 0 c-111 0 -144
-4 -177 -19 -47 -22 -80 -59 -94 -110 -8 -25 -10 -462 -8 -1376 l3 -1340 32
-67 c55 -117 153 -194 278 -218 44 -8 651 -10 2280 -8 l2220 3 57 23 c81 33
160 108 200 190 l33 67 3 1362 c2 1354 2 1364 -18 1403 -11 22 -39 52 -62 67
-39 26 -48 28 -185 32 l-143 3 0 74 c0 131 -25 163 -175 222 -352 140 -712
196 -1095 172z m470 -176 c191 -25 385 -76 555 -146 38 -16 73 -34 77 -41 4
-6 7 -638 8 -1405 0 -1228 -1 -1393 -15 -1398 -8 -3 -51 8 -96 25 -86 33 -264
83 -359 101 -434 83 -949 45 -1314 -96 -50 -19 -99 -38 -108 -41 -17 -5 -18
66 -18 1405 0 1118 3 1411 13 1415 425 180 823 237 1257 181z m-2185 6 c218
-19 411 -63 650 -148 l110 -40 3 -1410 2 -1410 -137 48 c-270 94 -500 131
-813 131 -306 0 -527 -35 -797 -126 -73 -25 -137 -45 -143 -45 -7 0 -10 441
-10 1403 l0 1402 58 24 c346 143 714 201 1077 171z m3233 -472 c17 -17 17
-2613 0 -2669 -15 -52 -73 -117 -122 -140 -39 -18 -126 -19 -2269 -19 -1847 0
-2233 2 -2260 13 -47 20 -95 64 -120 111 l-22 41 -3 1319 c-2 974 1 1322 9
1332 9 11 43 14 135 14 l124 0 0 -1257 c0 -887 3 -1270 11 -1298 14 -51 73
-109 127 -126 47 -14 63 -10 237 51 257 90 416 114 740 115 229 0 275 -3 388
-23 163 -30 297 -68 467 -133 174 -66 182 -67 228 -36 20 14 48 28 62 32 14 4
66 22 117 41 514 189 1086 190 1597 2 160 -59 229 -47 283 48 l23 39 0 1271
c0 699 3 1274 7 1277 12 13 228 8 241 -5z"/>
</g>
</svg>
